<svg xmlns="http://www.w3.org/2000/svg" xmlns:xlink="http://www.w3.org/1999/xlink" viewBox="0 0 221.69 254.05"><defs><style>.cls-1,.cls-10,.cls-11,.cls-12,.cls-13,.cls-14,.cls-15,.cls-16,.cls-17,.cls-18,.cls-19,.cls-2,.cls-20,.cls-3,.cls-4,.cls-5,.cls-6,.cls-7,.cls-8,.cls-9{stroke:#ed1c07;stroke-miterlimit:10;}.cls-1{fill:url(#Gradiente_sem_nome_44);}.cls-2{fill:url(#Gradiente_sem_nome_44-2);}.cls-3{fill:url(#Gradiente_sem_nome_44-3);}.cls-4{fill:url(#Gradiente_sem_nome_40);}.cls-5{fill:url(#Gradiente_sem_nome_44-4);}.cls-6{fill:url(#Gradiente_sem_nome_44-5);}.cls-7{fill:url(#Gradiente_sem_nome_38);}.cls-8{fill:url(#Gradiente_sem_nome_35);}.cls-9{fill:url(#Gradiente_sem_nome_41);}.cls-10{fill:url(#Gradiente_sem_nome_35-2);}.cls-11{fill:url(#Gradiente_sem_nome_44-6);}.cls-12{fill:url(#Gradiente_sem_nome_35-3);}.cls-13{fill:url(#Gradiente_sem_nome_35-4);}.cls-14{fill:url(#Gradiente_sem_nome_101);}.cls-15{fill:url(#Gradiente_sem_nome_100);}.cls-16{fill:#ed1c07;}.cls-17{fill:url(#Gradiente_sem_nome_93);}.cls-18{fill:url(#Gradiente_sem_nome_89);}.cls-19{fill:url(#Gradiente_sem_nome_62);}.cls-20{fill:url(#Gradiente_sem_nome_81);}</style><linearGradient id="Gradiente_sem_nome_44" x1="24.64" y1="127.42" x2="39.75" y2="127.42" gradientUnits="userSpaceOnUse"><stop offset="0" stop-color="#fff"/><stop offset="0.88" stop-color="#ed1c07"/></linearGradient><linearGradient id="Gradiente_sem_nome_44-2" x1="94.9" y1="66.32" x2="125.4" y2="-27.85" xlink:href="#Gradiente_sem_nome_44"/><linearGradient id="Gradiente_sem_nome_44-3" x1="94.4" y1="193.62" x2="100.73" y2="179.89" xlink:href="#Gradiente_sem_nome_44"/><linearGradient id="Gradiente_sem_nome_40" x1="91.2" y1="133.42" x2="125.83" y2="97.93" gradientUnits="userSpaceOnUse"><stop offset="0" stop-color="#fff"/><stop offset="0.19" stop-color="#fbc7c2"/><stop offset="0.88" stop-color="#ed1c07"/></linearGradient><linearGradient id="Gradiente_sem_nome_44-4" x1="88.76" y1="174.58" x2="109.2" y2="152.02" xlink:href="#Gradiente_sem_nome_44"/><linearGradient id="Gradiente_sem_nome_44-5" x1="158.45" y1="128.11" x2="159.82" y2="113.06" xlink:href="#Gradiente_sem_nome_44"/><linearGradient id="Gradiente_sem_nome_38" x1="-1.87" y1="239.57" x2="181.81" y2="27.7" gradientUnits="userSpaceOnUse"><stop offset="0" stop-color="#fff"/><stop offset="0.33" stop-color="#ed1c07"/></linearGradient><linearGradient id="Gradiente_sem_nome_35" x1="24.64" y1="127.42" x2="39.75" y2="127.42" gradientUnits="userSpaceOnUse"><stop offset="0" stop-color="#fff"/><stop offset="0.88"/></linearGradient><linearGradient id="Gradiente_sem_nome_41" x1="88.07" y1="64.1" x2="123.71" y2="64.1" gradientUnits="userSpaceOnUse"><stop offset="0" stop-color="#fff"/><stop offset="0.84" stop-color="#ed1c07"/></linearGradient><linearGradient id="Gradiente_sem_nome_35-2" x1="95.06" y1="192.88" x2="99.54" y2="178.45" xlink:href="#Gradiente_sem_nome_35"/><linearGradient id="Gradiente_sem_nome_44-6" x1="79.6" y1="111.56" x2="142.76" y2="111.56" xlink:href="#Gradiente_sem_nome_44"/><linearGradient id="Gradiente_sem_nome_35-3" x1="87.77" y1="174.61" x2="109.64" y2="153.44" xlink:href="#Gradiente_sem_nome_35"/><linearGradient id="Gradiente_sem_nome_35-4" x1="156.95" y1="130.49" x2="163.82" y2="117.03" xlink:href="#Gradiente_sem_nome_35"/><linearGradient id="Gradiente_sem_nome_101" x1="79.6" y1="127.06" x2="142.76" y2="127.06" gradientUnits="userSpaceOnUse"><stop offset="0" stop-color="#fff"/><stop offset="0.54" stop-color="#ed1c07"/></linearGradient><linearGradient id="Gradiente_sem_nome_100" x1="93.91" y1="111.56" x2="97.44" y2="111.56" gradientUnits="userSpaceOnUse"><stop offset="0" stop-color="#fff"/><stop offset="0.29" stop-color="#e31d1b"/></linearGradient><linearGradient id="Gradiente_sem_nome_93" x1="88.18" y1="127.42" x2="103.28" y2="127.42" gradientUnits="userSpaceOnUse"><stop offset="0" stop-color="#fff"/><stop offset="0.42" stop-color="#e31d1b"/></linearGradient><linearGradient id="Gradiente_sem_nome_89" x1="95.03" y1="192.93" x2="99.62" y2="178.53" gradientUnits="userSpaceOnUse"><stop offset="0" stop-color="#fff"/><stop offset="0.1" stop-color="#e31d1b"/><stop offset="0.75" stop-color="#e42826"/></linearGradient><linearGradient id="Gradiente_sem_nome_62" x1="154.53" y1="131.83" x2="164.66" y2="120.62" gradientUnits="userSpaceOnUse"><stop offset="0" stop-color="#fff"/><stop offset="0.27" stop-color="#ed1c07"/></linearGradient><linearGradient id="Gradiente_sem_nome_81" x1="89.58" y1="174.45" x2="108.76" y2="150.82" gradientUnits="userSpaceOnUse"><stop offset="0" stop-color="#fff"/><stop offset="0.34" stop-color="#e52e2c"/><stop offset="0.48" stop-color="#e31d1b"/></linearGradient></defs><g id="Camada_2" data-name="Camada 2"><g id="Camada_2-2" data-name="Camada 2"><path class="cls-1" d="M39.75,127.42a7.56,7.56,0,1,1-7.56-7.55A7.57,7.57,0,0,1,39.75,127.42Z"/><path class="cls-2" d="M103.18,64.1a7.56,7.56,0,1,1-7.55-7.55A7.56,7.56,0,0,1,103.18,64.1Z"/><path class="cls-3" d="M103.28,190.74a7.55,7.55,0,1,1-7.55-7.55A7.55,7.55,0,0,1,103.28,190.74Z"/><path class="cls-4" d="M142.76,123.45v7.23H102.53a7.52,7.52,0,0,1-5.09,4.1v7.8H93.91v-7.83a7.49,7.49,0,0,1-5-4.07H79.6v-7.23h9.72a7.45,7.45,0,0,1,4.59-3.35V80.54h3.53v39.53a7.49,7.49,0,0,1,4.7,3.38Z"/><rect class="cls-5" x="80.41" y="159.29" width="30.44" height="15.43"/><path class="cls-6" d="M166.07,127.42a7.56,7.56,0,1,1-7.56-7.55A7.56,7.56,0,0,1,166.07,127.42Z"/><path class="cls-7" d="M217.34,112.36c-3.71-1.1-8.58-.52-14.13.15-.83.52-3.87.49-5.16,6.92h-8.36c-2-21.94-10.09-38.95-21.21-51.43a211.92,211.92,0,0,0-10.29-51.42L142.12.5H47.84l-15.61,17c-2.61,4.66-8.6,34.32-10.32,51.16-27.65,34.71-29.42,77.38,0,117.64.91,16.89,6.06,35.88,11.44,54.09L48,253.55h95.34L158,237.92c6-18.2,11.12-44.56,10.48-51.63,15.43-15.43,19.39-33.64,20.89-50.79l8.45,0,.87,2.61c.27,2.51,2.74,4,5.79,5.14h12.21c2.12-.1,3.56-2,4.5-5.14V117.5C221.19,114,218.06,113.33,217.34,112.36ZM95.73,206.22a78.8,78.8,0,1,1,78.53-78.8A78.67,78.67,0,0,1,95.73,206.22Z"/><path class="cls-8" d="M39.75,127.42a7.56,7.56,0,1,1-7.56-7.55A7.57,7.57,0,0,1,39.75,127.42Z"/><path class="cls-9" d="M103.18,64.1a7.56,7.56,0,1,1-7.55-7.55A7.56,7.56,0,0,1,103.18,64.1Z"/><path class="cls-10" d="M103.28,190.74a7.55,7.55,0,1,1-7.55-7.55A7.55,7.55,0,0,1,103.28,190.74Z"/><path class="cls-11" d="M142.76,123.45v7.23H102.53a7.52,7.52,0,0,1-5.09,4.1v7.8H93.91v-7.83a7.49,7.49,0,0,1-5-4.07H79.6v-7.23h9.72a7.45,7.45,0,0,1,4.59-3.35V80.54h3.53v39.53a7.49,7.49,0,0,1,4.7,3.38Z"/><rect class="cls-12" x="80.41" y="159.29" width="30.44" height="15.43"/><path class="cls-13" d="M166.07,127.42a7.56,7.56,0,1,1-7.56-7.55A7.56,7.56,0,0,1,166.07,127.42Z"/><rect class="cls-14" x="79.6" y="123.45" width="63.16" height="7.23"/><rect class="cls-15" x="93.91" y="80.54" width="3.53" height="62.04"/><path class="cls-8" d="M39.75,127.42a7.56,7.56,0,1,1-7.56-7.55A7.57,7.57,0,0,1,39.75,127.42Z"/><path class="cls-16" d="M39.75,127.42a7.56,7.56,0,1,1-7.56-7.55A7.57,7.57,0,0,1,39.75,127.42Z"/><path class="cls-17" d="M103.28,127.42a7.4,7.4,0,0,1-.75,3.26,7.52,7.52,0,0,1-5.09,4.1,7.41,7.41,0,0,1-1.71.2,7.26,7.26,0,0,1-1.82-.23,7.49,7.49,0,0,1-5-4.07,7.55,7.55,0,0,1,5-10.58,7.26,7.26,0,0,1,1.82-.23,7.41,7.41,0,0,1,1.71.2,7.49,7.49,0,0,1,4.7,3.38A7.37,7.37,0,0,1,103.28,127.42Z"/><path class="cls-18" d="M103.28,190.74a7.55,7.55,0,1,1-7.55-7.55A7.55,7.55,0,0,1,103.28,190.74Z"/><path class="cls-19" d="M166.07,127.42a7.56,7.56,0,1,1-7.56-7.55A7.56,7.56,0,0,1,166.07,127.42Z"/><path class="cls-16" d="M103.18,64.1a7.56,7.56,0,1,1-7.55-7.55A7.56,7.56,0,0,1,103.18,64.1Z"/><rect class="cls-20" x="80.41" y="159.29" width="30.44" height="15.43"/></g></g></svg>